<svg width="48" height="48" viewBox="0 0 48 48" fill="none" xmlns="http://www.w3.org/2000/svg">
<g filter="url(#filter0_iiii_760_106)">
<path d="M39.6 0H8.4C3.76081 0 0 3.76081 0 8.4V39.6C0 44.2392 3.76081 48 8.4 48H39.6C44.2392 48 48 44.2392 48 39.6V8.4C48 3.76081 44.2392 0 39.6 0Z" fill="#001E36"/>
</g>
<g filter="url(#filter1_iiii_760_106)">
<path d="M10.7998 34.0304V13.7203C10.7998 13.5749 10.8726 13.5022 11.0182 13.5022C12.5989 13.4607 14.606 13.4399 17.0395 13.4399C19.9097 13.4399 22.0104 14.0837 23.3416 15.3713C24.6935 16.6588 25.3694 18.2475 25.3694 20.1373C25.3694 22.484 24.5375 24.2284 22.8736 25.3706C21.2097 26.5127 19.1194 27.0838 16.6027 27.0838H14.762V33.9992C14.762 34.1654 14.6788 34.2484 14.5124 34.2484H11.0494C10.883 34.2484 10.7998 34.1758 10.7998 34.0304ZM14.762 16.4304V24.0934C15.0532 24.1349 15.7291 24.1557 16.7899 24.1557C18.1834 24.1557 19.3066 23.8546 20.1593 23.2523C21.0329 22.6293 21.4696 21.6221 21.4696 20.2307C21.4696 19.0055 21.0849 18.0606 20.3153 17.396C19.5665 16.7315 18.4746 16.3992 17.0395 16.3992C16.6859 16.3992 16.3323 16.4096 15.9787 16.4304C15.646 16.4304 15.3652 16.4304 15.1364 16.4304C14.9284 16.4304 14.8036 16.4304 14.762 16.4304Z" fill="#31A8FE"/>
<path d="M36.2543 22.6605C35.0895 21.9336 33.8728 21.5702 32.6041 21.5702C31.8761 21.5702 31.3353 21.7052 30.9817 21.9752C30.649 22.2451 30.4826 22.567 30.4826 22.9408C30.4826 23.3146 30.6282 23.6469 30.9193 23.9376C31.2105 24.2076 31.8241 24.5295 32.76 24.9033C34.4864 25.5678 35.6927 26.2739 36.3791 27.0215C37.0862 27.7484 37.4398 28.6933 37.4398 29.8562C37.4398 31.2684 36.899 32.4106 35.8175 33.2828C34.7567 34.1342 33.3112 34.5599 31.4809 34.5599C29.6506 34.5599 28.1531 34.2277 26.9883 33.5631C26.8636 33.5216 26.8012 33.4178 26.8012 33.2516V30.3546C26.8012 30.2716 26.822 30.2196 26.8636 30.1989C26.926 30.1573 26.9779 30.1573 27.0195 30.1989C28.3715 31.1957 29.817 31.6941 31.3561 31.6941C32.0841 31.6941 32.6353 31.5695 33.0096 31.3203C33.4048 31.0503 33.6024 30.7077 33.6024 30.2923C33.6024 29.8562 33.4464 29.4928 33.1344 29.2021C32.8224 28.8906 32.2089 28.5583 31.2937 28.2053C29.6298 27.5615 28.4651 26.8762 27.7995 26.1493C27.1547 25.4017 26.8324 24.4672 26.8324 23.3458C26.8324 22.0582 27.3211 20.9783 28.2987 20.1061C29.2762 19.2339 30.6698 18.7978 32.4793 18.7978C34.164 18.7978 35.4639 19.0263 36.3791 19.4831C36.4831 19.5454 36.5351 19.6804 36.5351 19.8881V22.4736C36.5351 22.7228 36.4415 22.7851 36.2543 22.6605Z" fill="#31A8FE"/>
</g>
<defs>
<filter id="filter0_iiii_760_106" x="-1" y="0" width="51" height="49" filterUnits="userSpaceOnUse" color-interpolation-filters="sRGB">
<feFlood flood-opacity="0" result="BackgroundImageFix"/>
<feBlend mode="normal" in="SourceGraphic" in2="BackgroundImageFix" result="shape"/>
<feColorMatrix in="SourceAlpha" type="matrix" values="0 0 0 0 0 0 0 0 0 0 0 0 0 0 0 0 0 0 127 0" result="hardAlpha"/>
<feOffset/>
<feGaussianBlur stdDeviation="0.25"/>
<feComposite in2="hardAlpha" operator="arithmetic" k2="-1" k3="1"/>
<feColorMatrix type="matrix" values="0 0 0 0 1 0 0 0 0 1 0 0 0 0 1 0 0 0 0.3 0"/>
<feBlend mode="normal" in2="shape" result="effect1_innerShadow_760_106"/>
<feColorMatrix in="SourceAlpha" type="matrix" values="0 0 0 0 0 0 0 0 0 0 0 0 0 0 0 0 0 0 127 0" result="hardAlpha"/>
<feOffset dx="-1" dy="1"/>
<feGaussianBlur stdDeviation="1"/>
<feComposite in2="hardAlpha" operator="arithmetic" k2="-1" k3="1"/>
<feColorMatrix type="matrix" values="0 0 0 0 1 0 0 0 0 1 0 0 0 0 1 0 0 0 0.25 0"/>
<feBlend mode="normal" in2="effect1_innerShadow_760_106" result="effect2_innerShadow_760_106"/>
<feColorMatrix in="SourceAlpha" type="matrix" values="0 0 0 0 0 0 0 0 0 0 0 0 0 0 0 0 0 0 127 0" result="hardAlpha"/>
<feOffset dx="2"/>
<feGaussianBlur stdDeviation="2"/>
<feComposite in2="hardAlpha" operator="arithmetic" k2="-1" k3="1"/>
<feColorMatrix type="matrix" values="0 0 0 0 0.220833 0 0 0 0 0.220833 0 0 0 0 0.220833 0 0 0 0.28 0"/>
<feBlend mode="normal" in2="effect2_innerShadow_760_106" result="effect3_innerShadow_760_106"/>
<feColorMatrix in="SourceAlpha" type="matrix" values="0 0 0 0 0 0 0 0 0 0 0 0 0 0 0 0 0 0 127 0" result="hardAlpha"/>
<feOffset dx="1" dy="1"/>
<feGaussianBlur stdDeviation="1.5"/>
<feComposite in2="hardAlpha" operator="arithmetic" k2="-1" k3="1"/>
<feColorMatrix type="matrix" values="0 0 0 0 0.2 0 0 0 0 0.199167 0 0 0 0 0.199217 0 0 0 0.1 0"/>
<feBlend mode="normal" in2="effect3_innerShadow_760_106" result="effect4_innerShadow_760_106"/>
</filter>
<filter id="filter1_iiii_760_106" x="9.7998" y="13.4399" width="29.6396" height="22.1201" filterUnits="userSpaceOnUse" color-interpolation-filters="sRGB">
<feFlood flood-opacity="0" result="BackgroundImageFix"/>
<feBlend mode="normal" in="SourceGraphic" in2="BackgroundImageFix" result="shape"/>
<feColorMatrix in="SourceAlpha" type="matrix" values="0 0 0 0 0 0 0 0 0 0 0 0 0 0 0 0 0 0 127 0" result="hardAlpha"/>
<feOffset/>
<feGaussianBlur stdDeviation="0.25"/>
<feComposite in2="hardAlpha" operator="arithmetic" k2="-1" k3="1"/>
<feColorMatrix type="matrix" values="0 0 0 0 1 0 0 0 0 1 0 0 0 0 1 0 0 0 0.3 0"/>
<feBlend mode="normal" in2="shape" result="effect1_innerShadow_760_106"/>
<feColorMatrix in="SourceAlpha" type="matrix" values="0 0 0 0 0 0 0 0 0 0 0 0 0 0 0 0 0 0 127 0" result="hardAlpha"/>
<feOffset dx="-1" dy="1"/>
<feGaussianBlur stdDeviation="1"/>
<feComposite in2="hardAlpha" operator="arithmetic" k2="-1" k3="1"/>
<feColorMatrix type="matrix" values="0 0 0 0 1 0 0 0 0 1 0 0 0 0 1 0 0 0 0.25 0"/>
<feBlend mode="normal" in2="effect1_innerShadow_760_106" result="effect2_innerShadow_760_106"/>
<feColorMatrix in="SourceAlpha" type="matrix" values="0 0 0 0 0 0 0 0 0 0 0 0 0 0 0 0 0 0 127 0" result="hardAlpha"/>
<feOffset dx="2"/>
<feGaussianBlur stdDeviation="2"/>
<feComposite in2="hardAlpha" operator="arithmetic" k2="-1" k3="1"/>
<feColorMatrix type="matrix" values="0 0 0 0 0.220833 0 0 0 0 0.220833 0 0 0 0 0.220833 0 0 0 0.28 0"/>
<feBlend mode="normal" in2="effect2_innerShadow_760_106" result="effect3_innerShadow_760_106"/>
<feColorMatrix in="SourceAlpha" type="matrix" values="0 0 0 0 0 0 0 0 0 0 0 0 0 0 0 0 0 0 127 0" result="hardAlpha"/>
<feOffset dx="1" dy="1"/>
<feGaussianBlur stdDeviation="1.5"/>
<feComposite in2="hardAlpha" operator="arithmetic" k2="-1" k3="1"/>
<feColorMatrix type="matrix" values="0 0 0 0 0.2 0 0 0 0 0.199167 0 0 0 0 0.199217 0 0 0 0.1 0"/>
<feBlend mode="normal" in2="effect3_innerShadow_760_106" result="effect4_innerShadow_760_106"/>
</filter>
</defs>
</svg>
