<svg width="48" height="48" viewBox="0 0 48 48" fill="none" xmlns="http://www.w3.org/2000/svg">
<g clip-path="url(#clip0_756_25)">
<g filter="url(#filter0_iiii_756_25)">
<path d="M8.5 3.86887e-06H39.5C40.6165 -0.00107545 41.7223 0.223684 42.7541 0.66142C43.7858 1.09916 44.7232 1.74127 45.5128 2.55102C46.3023 3.36078 46.9283 4.32226 47.3551 5.38046C47.7819 6.43866 48.001 7.57279 48 8.71795V39.282C48.001 40.4272 47.7819 41.5613 47.3551 42.6195C46.9283 43.6777 46.3023 44.6392 45.5128 45.449C44.7232 46.2587 43.7858 46.9008 42.7541 47.3386C41.7223 47.7763 40.6165 48.0011 39.5 48H8.5C7.38347 48.0011 6.27769 47.7763 5.24595 47.3386C4.21421 46.9008 3.27676 46.2587 2.48725 45.449C1.69774 44.6392 1.07168 43.6777 0.644884 42.6195C0.218092 41.5613 -0.00104857 40.4272 3.77215e-06 39.282V8.71795C-0.00104857 7.57279 0.218092 6.43866 0.644884 5.38046C1.07168 4.32226 1.69774 3.36078 2.48725 2.55102C3.27676 1.74127 4.21421 1.09916 5.24595 0.66142C6.27769 0.223684 7.38347 -0.00107545 8.5 3.86887e-06V3.86887e-06Z" fill="#F7DF1E"/>
</g>
<g filter="url(#filter1_iiii_756_25)">
<path d="M32.3251 37.5579C33.2919 39.1366 34.5498 40.297 36.7746 40.297C38.6435 40.297 39.8374 39.3629 39.8374 38.0722C39.8374 36.5256 38.6108 35.9777 36.5536 35.0779L35.426 34.5941C32.1712 33.2075 30.0089 31.4703 30.0089 27.7979C30.0089 24.4151 32.5864 21.8398 36.6146 21.8398C39.4824 21.8398 41.5441 22.8379 43.0298 25.4513L39.5174 27.7065C38.7441 26.3198 37.9098 25.7736 36.6146 25.7736C35.2934 25.7736 34.4561 26.6117 34.4561 27.7065C34.4561 29.0597 35.2942 29.6075 37.2294 30.4456L38.3571 30.9286C42.1894 32.572 44.3533 34.2475 44.3533 38.0143C44.3533 42.0753 41.1632 44.3 36.879 44.3C32.69 44.3 29.9837 42.3038 28.6595 39.6875L32.3251 37.5579ZM16.3913 37.9488C17.0999 39.2059 17.7445 40.2688 19.2942 40.2688C20.7761 40.2688 21.711 39.689 21.711 37.4345V22.0974H26.2214V37.4955C26.2214 42.1659 23.4832 44.2917 19.4862 44.2917C15.8748 44.2917 13.7833 42.4227 12.7197 40.1717L16.3913 37.9488Z" fill="black"/>
</g>
</g>
<defs>
<filter id="filter0_iiii_756_25" x="-1" y="0" width="51" height="49" filterUnits="userSpaceOnUse" color-interpolation-filters="sRGB">
<feFlood flood-opacity="0" result="BackgroundImageFix"/>
<feBlend mode="normal" in="SourceGraphic" in2="BackgroundImageFix" result="shape"/>
<feColorMatrix in="SourceAlpha" type="matrix" values="0 0 0 0 0 0 0 0 0 0 0 0 0 0 0 0 0 0 127 0" result="hardAlpha"/>
<feOffset/>
<feGaussianBlur stdDeviation="0.25"/>
<feComposite in2="hardAlpha" operator="arithmetic" k2="-1" k3="1"/>
<feColorMatrix type="matrix" values="0 0 0 0 1 0 0 0 0 1 0 0 0 0 1 0 0 0 0.3 0"/>
<feBlend mode="normal" in2="shape" result="effect1_innerShadow_756_25"/>
<feColorMatrix in="SourceAlpha" type="matrix" values="0 0 0 0 0 0 0 0 0 0 0 0 0 0 0 0 0 0 127 0" result="hardAlpha"/>
<feOffset dx="-1" dy="1"/>
<feGaussianBlur stdDeviation="1"/>
<feComposite in2="hardAlpha" operator="arithmetic" k2="-1" k3="1"/>
<feColorMatrix type="matrix" values="0 0 0 0 1 0 0 0 0 1 0 0 0 0 1 0 0 0 0.25 0"/>
<feBlend mode="normal" in2="effect1_innerShadow_756_25" result="effect2_innerShadow_756_25"/>
<feColorMatrix in="SourceAlpha" type="matrix" values="0 0 0 0 0 0 0 0 0 0 0 0 0 0 0 0 0 0 127 0" result="hardAlpha"/>
<feOffset dx="2"/>
<feGaussianBlur stdDeviation="2"/>
<feComposite in2="hardAlpha" operator="arithmetic" k2="-1" k3="1"/>
<feColorMatrix type="matrix" values="0 0 0 0 0.220833 0 0 0 0 0.220833 0 0 0 0 0.220833 0 0 0 0.28 0"/>
<feBlend mode="normal" in2="effect2_innerShadow_756_25" result="effect3_innerShadow_756_25"/>
<feColorMatrix in="SourceAlpha" type="matrix" values="0 0 0 0 0 0 0 0 0 0 0 0 0 0 0 0 0 0 127 0" result="hardAlpha"/>
<feOffset dx="1" dy="1"/>
<feGaussianBlur stdDeviation="1.5"/>
<feComposite in2="hardAlpha" operator="arithmetic" k2="-1" k3="1"/>
<feColorMatrix type="matrix" values="0 0 0 0 0.2 0 0 0 0 0.199167 0 0 0 0 0.199217 0 0 0 0.1 0"/>
<feBlend mode="normal" in2="effect3_innerShadow_756_25" result="effect4_innerShadow_756_25"/>
</filter>
<filter id="filter1_iiii_756_25" x="11.7197" y="21.8398" width="34.6338" height="23.46" filterUnits="userSpaceOnUse" color-interpolation-filters="sRGB">
<feFlood flood-opacity="0" result="BackgroundImageFix"/>
<feBlend mode="normal" in="SourceGraphic" in2="BackgroundImageFix" result="shape"/>
<feColorMatrix in="SourceAlpha" type="matrix" values="0 0 0 0 0 0 0 0 0 0 0 0 0 0 0 0 0 0 127 0" result="hardAlpha"/>
<feOffset/>
<feGaussianBlur stdDeviation="0.25"/>
<feComposite in2="hardAlpha" operator="arithmetic" k2="-1" k3="1"/>
<feColorMatrix type="matrix" values="0 0 0 0 1 0 0 0 0 1 0 0 0 0 1 0 0 0 0.3 0"/>
<feBlend mode="normal" in2="shape" result="effect1_innerShadow_756_25"/>
<feColorMatrix in="SourceAlpha" type="matrix" values="0 0 0 0 0 0 0 0 0 0 0 0 0 0 0 0 0 0 127 0" result="hardAlpha"/>
<feOffset dx="-1" dy="1"/>
<feGaussianBlur stdDeviation="1"/>
<feComposite in2="hardAlpha" operator="arithmetic" k2="-1" k3="1"/>
<feColorMatrix type="matrix" values="0 0 0 0 1 0 0 0 0 1 0 0 0 0 1 0 0 0 0.25 0"/>
<feBlend mode="normal" in2="effect1_innerShadow_756_25" result="effect2_innerShadow_756_25"/>
<feColorMatrix in="SourceAlpha" type="matrix" values="0 0 0 0 0 0 0 0 0 0 0 0 0 0 0 0 0 0 127 0" result="hardAlpha"/>
<feOffset dx="2"/>
<feGaussianBlur stdDeviation="2"/>
<feComposite in2="hardAlpha" operator="arithmetic" k2="-1" k3="1"/>
<feColorMatrix type="matrix" values="0 0 0 0 0.220833 0 0 0 0 0.220833 0 0 0 0 0.220833 0 0 0 0.28 0"/>
<feBlend mode="normal" in2="effect2_innerShadow_756_25" result="effect3_innerShadow_756_25"/>
<feColorMatrix in="SourceAlpha" type="matrix" values="0 0 0 0 0 0 0 0 0 0 0 0 0 0 0 0 0 0 127 0" result="hardAlpha"/>
<feOffset dx="1" dy="1"/>
<feGaussianBlur stdDeviation="1.5"/>
<feComposite in2="hardAlpha" operator="arithmetic" k2="-1" k3="1"/>
<feColorMatrix type="matrix" values="0 0 0 0 0.2 0 0 0 0 0.199167 0 0 0 0 0.199217 0 0 0 0.1 0"/>
<feBlend mode="normal" in2="effect3_innerShadow_756_25" result="effect4_innerShadow_756_25"/>
</filter>
<clipPath id="clip0_756_25">
<rect width="48" height="48" fill="white"/>
</clipPath>
</defs>
</svg>
