<svg width="48" height="48" viewBox="0 0 48 48" fill="none" xmlns="http://www.w3.org/2000/svg">
<g filter="url(#filter0_iiii_756_52)">
<path d="M41.3213 22.3966L25.6024 6.67896C24.6979 5.77368 23.2298 5.77368 22.3243 6.67896L19.0604 9.94326L23.2005 14.0835C24.163 13.7585 25.2662 13.9764 26.033 14.7435C26.8038 15.5153 27.0202 16.6279 26.6871 17.5936L30.6774 21.5841C31.6428 21.2514 32.7566 21.4664 33.5274 22.2386C34.6052 23.3161 34.6052 25.0619 33.5274 26.1397C32.4496 27.2177 30.7038 27.2177 29.6253 26.1397C28.8149 25.3286 28.6145 24.138 29.0249 23.1395L25.3035 19.4179L25.3032 29.2111C25.566 29.3412 25.8139 29.5148 26.0329 29.7328C27.1103 30.8101 27.1103 32.5557 26.0329 33.6348C24.9552 34.7121 23.2086 34.7121 22.132 33.6348C21.0544 32.5558 21.0544 30.8102 22.132 29.7328C22.3983 29.467 22.7064 29.2658 23.0352 29.1309V19.2467C22.7063 19.1124 22.3985 18.9127 22.1318 18.6447C21.3156 17.8291 21.119 16.6311 21.5376 15.6288L17.4563 11.5467L6.67915 22.3239C5.77362 23.2299 5.77362 24.6981 6.67915 25.6034L22.3971 41.321C23.302 42.2263 24.7696 42.2263 25.6758 41.321L41.3211 25.6777C42.2263 24.7719 42.2263 23.3034 41.3211 22.3979" fill="#F05133"/>
</g>
<defs>
<filter id="filter0_iiii_756_52" x="5" y="6" width="39" height="37" filterUnits="userSpaceOnUse" color-interpolation-filters="sRGB">
<feFlood flood-opacity="0" result="BackgroundImageFix"/>
<feBlend mode="normal" in="SourceGraphic" in2="BackgroundImageFix" result="shape"/>
<feColorMatrix in="SourceAlpha" type="matrix" values="0 0 0 0 0 0 0 0 0 0 0 0 0 0 0 0 0 0 127 0" result="hardAlpha"/>
<feOffset/>
<feGaussianBlur stdDeviation="0.25"/>
<feComposite in2="hardAlpha" operator="arithmetic" k2="-1" k3="1"/>
<feColorMatrix type="matrix" values="0 0 0 0 1 0 0 0 0 1 0 0 0 0 1 0 0 0 0.3 0"/>
<feBlend mode="normal" in2="shape" result="effect1_innerShadow_756_52"/>
<feColorMatrix in="SourceAlpha" type="matrix" values="0 0 0 0 0 0 0 0 0 0 0 0 0 0 0 0 0 0 127 0" result="hardAlpha"/>
<feOffset dx="-1" dy="1"/>
<feGaussianBlur stdDeviation="1"/>
<feComposite in2="hardAlpha" operator="arithmetic" k2="-1" k3="1"/>
<feColorMatrix type="matrix" values="0 0 0 0 1 0 0 0 0 1 0 0 0 0 1 0 0 0 0.25 0"/>
<feBlend mode="normal" in2="effect1_innerShadow_756_52" result="effect2_innerShadow_756_52"/>
<feColorMatrix in="SourceAlpha" type="matrix" values="0 0 0 0 0 0 0 0 0 0 0 0 0 0 0 0 0 0 127 0" result="hardAlpha"/>
<feOffset dx="2"/>
<feGaussianBlur stdDeviation="2"/>
<feComposite in2="hardAlpha" operator="arithmetic" k2="-1" k3="1"/>
<feColorMatrix type="matrix" values="0 0 0 0 0.220833 0 0 0 0 0.220833 0 0 0 0 0.220833 0 0 0 0.28 0"/>
<feBlend mode="normal" in2="effect2_innerShadow_756_52" result="effect3_innerShadow_756_52"/>
<feColorMatrix in="SourceAlpha" type="matrix" values="0 0 0 0 0 0 0 0 0 0 0 0 0 0 0 0 0 0 127 0" result="hardAlpha"/>
<feOffset dx="1" dy="1"/>
<feGaussianBlur stdDeviation="1.5"/>
<feComposite in2="hardAlpha" operator="arithmetic" k2="-1" k3="1"/>
<feColorMatrix type="matrix" values="0 0 0 0 0.2 0 0 0 0 0.199167 0 0 0 0 0.199217 0 0 0 0.1 0"/>
<feBlend mode="normal" in2="effect3_innerShadow_756_52" result="effect4_innerShadow_756_52"/>
</filter>
</defs>
</svg>
