<svg width="48" height="48" viewBox="0 0 48 48" fill="none" xmlns="http://www.w3.org/2000/svg">
<g clip-path="url(#clip0_760_98)">
<g filter="url(#filter0_iiii_760_98)">
<path d="M37.1518 26.1833C35.8799 26.19 34.7744 26.4992 33.8488 26.9563C33.5091 26.2774 33.1695 25.6724 33.1096 25.2288C33.043 24.7112 32.9631 24.3952 33.043 23.7768C33.1229 23.1584 33.4825 22.2779 33.4758 22.2106C33.4692 22.1434 33.3959 21.8275 32.6634 21.8208C31.9309 21.814 31.2982 21.9619 31.225 22.1569C31.1517 22.3518 31.0119 22.7954 30.9186 23.2525C30.7921 23.9247 29.4536 26.3244 28.6878 27.5814C28.4414 27.0907 28.2283 26.6605 28.1816 26.3177C28.115 25.8001 28.0351 25.4842 28.115 24.8658C28.195 24.2474 28.5546 23.3668 28.5479 23.2996C28.5412 23.2324 28.468 22.9164 27.7355 22.9097C27.0029 22.903 26.3703 23.0509 26.297 23.2458C26.2238 23.4407 26.1439 23.8978 25.9907 24.3415C25.8375 24.7851 24.0595 28.7913 23.5933 29.8265C23.3536 30.3575 23.1472 30.781 23.0007 31.0701C23.0007 31.0701 22.994 31.0902 22.974 31.1238C22.8475 31.3725 22.7742 31.507 22.7742 31.507C22.7742 31.507 22.7742 31.507 22.7742 31.5137C22.6743 31.6952 22.5678 31.8632 22.5145 31.8632C22.4746 31.8632 22.4013 31.3793 22.5278 30.7205C22.7942 29.3291 23.4269 27.1647 23.4202 27.0907C23.4202 27.0504 23.5401 26.674 23.0073 26.479C22.4879 26.2841 22.3014 26.6067 22.2548 26.6067C22.2082 26.6067 22.1749 26.721 22.1749 26.721C22.1749 26.721 22.7543 24.2877 21.0694 24.2877C20.0173 24.2877 18.5655 25.4506 17.8463 26.4992C17.3935 26.7479 16.4279 27.2789 15.3957 27.8503C15.0028 28.0721 14.5965 28.2939 14.217 28.5023C14.1903 28.4754 14.1637 28.4418 14.137 28.4149C12.0993 26.2169 8.33007 24.6641 8.4899 21.7132C8.54983 20.6377 8.9161 17.8145 15.7286 14.3864C21.3358 11.5968 25.7976 12.3698 26.5701 14.0839C27.6755 16.5307 24.1794 21.0746 18.3857 21.7334C16.1748 21.9821 15.0161 21.1217 14.7231 20.799C14.4167 20.4629 14.3701 20.4428 14.2569 20.51C14.0704 20.6108 14.1903 20.9133 14.2569 21.0881C14.4301 21.5452 15.1426 22.3518 16.3479 22.7484C17.4134 23.0979 20.0039 23.2929 23.1405 22.0695C26.65 20.6982 29.3936 16.8869 28.5879 13.694C27.7821 10.4541 22.4546 9.3853 17.4134 11.1935C14.4167 12.269 11.167 13.9629 8.82953 16.1677C6.05257 18.7892 5.61305 21.0679 5.79286 22.0224C6.43881 25.4102 11.0671 27.615 12.9184 29.2484C12.8251 29.3022 12.7386 29.3493 12.6653 29.3896C11.7397 29.8534 8.2102 31.7154 7.33117 33.6849C6.33226 35.9165 7.49099 37.5163 8.25682 37.7314C10.6342 38.3969 13.0782 37.2004 14.3901 35.2242C15.702 33.2479 15.5422 30.6802 14.9362 29.5039C14.9295 29.4904 14.9228 29.477 14.9095 29.4635C15.1493 29.3224 15.3957 29.1745 15.6354 29.0333C16.1082 28.751 16.5744 28.4889 16.9739 28.2738C16.7475 28.8989 16.581 29.645 16.5011 30.7205C16.4012 31.9842 16.914 33.6244 17.5866 34.2697C17.8863 34.552 18.2392 34.5587 18.4656 34.5587C19.2514 34.5587 19.6044 33.9 19.9973 33.1202C20.4768 32.1657 20.9096 31.0566 20.9096 31.0566C20.9096 31.0566 20.3702 34.0546 21.8353 34.0546C22.368 34.0546 22.9074 33.3555 23.1472 32.9992C23.1472 33.006 23.1472 33.006 23.1472 33.006C23.1472 33.006 23.1605 32.9858 23.1871 32.9387C23.2404 32.8514 23.2737 32.7976 23.2737 32.7976C23.2737 32.7976 23.2737 32.7909 23.2737 32.7841C23.4868 32.4077 23.9663 31.554 24.6788 30.1357C25.5978 28.3074 26.4835 26.0219 26.4835 26.0219C26.4835 26.0219 26.5634 26.5798 26.8364 27.5075C26.9963 28.0519 27.3292 28.6502 27.5956 29.2283C27.3825 29.5307 27.2493 29.6988 27.2493 29.6988C27.2493 29.6988 27.2493 29.6988 27.256 29.7055C27.0828 29.9341 26.8964 30.1828 26.6899 30.4248C25.9641 31.2986 25.0984 32.3002 24.9785 32.5892C24.8386 32.932 24.8719 33.1807 25.1383 33.3824C25.3314 33.5303 25.6777 33.5504 26.0307 33.5303C26.6833 33.4832 27.1428 33.3219 27.3692 33.2211C27.7221 33.0933 28.135 32.8984 28.5213 32.6094C29.2338 32.0783 29.6667 31.3188 29.6267 30.3172C29.6067 29.766 29.4269 29.2148 29.2072 28.6972C29.2738 28.6031 29.3337 28.509 29.4003 28.4149C30.5257 26.7546 31.3981 24.933 31.3981 24.933C31.3981 24.933 31.478 25.4909 31.7511 26.4185C31.8842 26.8891 32.1573 27.3999 32.397 27.8973C31.3382 28.7645 30.6856 29.7727 30.4525 30.4315C30.0329 31.6549 30.3593 32.2061 30.9786 32.3338C31.2583 32.3943 31.6578 32.2598 31.9508 32.1321C32.3238 32.0111 32.7633 31.8027 33.1828 31.4935C33.8954 30.9625 34.5813 30.2231 34.5413 29.2215C34.5214 28.7645 34.4015 28.3141 34.235 27.8772C35.134 27.5007 36.2927 27.2924 37.7711 27.4671C40.941 27.8436 41.567 29.84 41.4471 30.6802C41.3272 31.5204 40.6613 31.9775 40.4415 32.1187C40.2218 32.2598 40.1485 32.3069 40.1685 32.4077C40.1951 32.5556 40.3017 32.5489 40.4881 32.522C40.7479 32.4749 42.153 31.8431 42.2129 30.297C42.3128 28.3208 40.4482 26.1631 37.1518 26.1833ZM12.6986 34.5049C11.6464 35.6611 10.1814 36.098 9.54874 35.7283C8.86948 35.3317 9.13586 33.6244 10.4278 32.401C11.2136 31.6549 12.2258 30.9625 12.8984 30.539C13.0516 30.4449 13.278 30.3105 13.551 30.1424C13.5976 30.1156 13.6243 30.1021 13.6243 30.1021C13.6775 30.0685 13.7308 30.0349 13.7841 30.0013C14.2569 31.749 13.8041 33.2883 12.6986 34.5049ZM20.3569 29.2484C19.9906 30.1492 19.2248 32.4548 18.7586 32.327C18.3591 32.2195 18.1127 30.4718 18.6787 28.7443C18.9651 27.8772 19.5711 26.842 19.924 26.4387C20.4967 25.7934 21.1294 25.5783 21.2825 25.8404C21.4757 26.1833 20.5833 28.6838 20.3569 29.2484ZM26.6766 32.3002C26.5235 32.3808 26.377 32.4346 26.3104 32.3943C26.2637 32.3674 26.377 32.2598 26.377 32.2598C26.377 32.2598 27.1694 31.3994 27.4824 31.0096C27.6622 30.781 27.8753 30.5121 28.1017 30.2097C28.1017 30.2365 28.1017 30.2702 28.1017 30.297C28.1017 31.3255 27.1161 32.0178 26.6766 32.3002ZM31.5513 31.1776C31.4381 31.0969 31.458 30.8281 31.8376 29.9878C31.9841 29.6585 32.3304 29.1073 32.9231 28.5762C32.9897 28.7913 33.0363 28.9997 33.0297 29.1947C33.023 30.492 32.104 30.976 31.5513 31.1776Z" fill="#CD6799"/>
</g>
</g>
<defs>
<filter id="filter0_iiii_760_98" x="4.75781" y="10.3179" width="39.459" height="28.5986" filterUnits="userSpaceOnUse" color-interpolation-filters="sRGB">
<feFlood flood-opacity="0" result="BackgroundImageFix"/>
<feBlend mode="normal" in="SourceGraphic" in2="BackgroundImageFix" result="shape"/>
<feColorMatrix in="SourceAlpha" type="matrix" values="0 0 0 0 0 0 0 0 0 0 0 0 0 0 0 0 0 0 127 0" result="hardAlpha"/>
<feOffset/>
<feGaussianBlur stdDeviation="0.25"/>
<feComposite in2="hardAlpha" operator="arithmetic" k2="-1" k3="1"/>
<feColorMatrix type="matrix" values="0 0 0 0 1 0 0 0 0 1 0 0 0 0 1 0 0 0 0.3 0"/>
<feBlend mode="normal" in2="shape" result="effect1_innerShadow_760_98"/>
<feColorMatrix in="SourceAlpha" type="matrix" values="0 0 0 0 0 0 0 0 0 0 0 0 0 0 0 0 0 0 127 0" result="hardAlpha"/>
<feOffset dx="-1" dy="1"/>
<feGaussianBlur stdDeviation="1"/>
<feComposite in2="hardAlpha" operator="arithmetic" k2="-1" k3="1"/>
<feColorMatrix type="matrix" values="0 0 0 0 1 0 0 0 0 1 0 0 0 0 1 0 0 0 0.25 0"/>
<feBlend mode="normal" in2="effect1_innerShadow_760_98" result="effect2_innerShadow_760_98"/>
<feColorMatrix in="SourceAlpha" type="matrix" values="0 0 0 0 0 0 0 0 0 0 0 0 0 0 0 0 0 0 127 0" result="hardAlpha"/>
<feOffset dx="2"/>
<feGaussianBlur stdDeviation="2"/>
<feComposite in2="hardAlpha" operator="arithmetic" k2="-1" k3="1"/>
<feColorMatrix type="matrix" values="0 0 0 0 0.220833 0 0 0 0 0.220833 0 0 0 0 0.220833 0 0 0 0.28 0"/>
<feBlend mode="normal" in2="effect2_innerShadow_760_98" result="effect3_innerShadow_760_98"/>
<feColorMatrix in="SourceAlpha" type="matrix" values="0 0 0 0 0 0 0 0 0 0 0 0 0 0 0 0 0 0 127 0" result="hardAlpha"/>
<feOffset dx="1" dy="1"/>
<feGaussianBlur stdDeviation="1.5"/>
<feComposite in2="hardAlpha" operator="arithmetic" k2="-1" k3="1"/>
<feColorMatrix type="matrix" values="0 0 0 0 0.2 0 0 0 0 0.199167 0 0 0 0 0.199217 0 0 0 0.1 0"/>
<feBlend mode="normal" in2="effect3_innerShadow_760_98" result="effect4_innerShadow_760_98"/>
</filter>
<clipPath id="clip0_760_98">
<rect width="36.48" height="27.6" fill="white" transform="translate(5.75977 10.3198)"/>
</clipPath>
</defs>
</svg>
